<svg aria-hidden="true" style="position: absolute; width: 0; height: 0; overflow: hidden;" version="1.1" xmlns="http://www.w3.org/2000/svg" xmlns:xlink="http://www.w3.org/1999/xlink">
<defs>
<symbol id="arrow" viewBox="0 0 32 32">
<path stroke-linejoin="round" stroke-linecap="round" stroke-miterlimit="4" stroke-width="2.6" d="M15 28l13-13M28 15l-13-13M28 15h-26"></path>
</symbol>
<symbol id="burger-menu" viewBox="0 0 32 32">
<path stroke-linejoin="round" stroke-linecap="round" stroke-miterlimit="4" stroke-width="2" d="M28 13.333h-24"></path>
<path stroke-linejoin="round" stroke-linecap="round" stroke-miterlimit="4" stroke-width="2" d="M28 8h-24"></path>
<path stroke-linejoin="round" stroke-linecap="round" stroke-miterlimit="4" stroke-width="2" d="M28 18.667h-24"></path>
<path stroke-linejoin="round" stroke-linecap="round" stroke-miterlimit="4" stroke-width="2" d="M28 24h-24"></path>
</symbol>
<symbol id="close" viewBox="0 0 32 32">
<path fill="none" stroke="#f4f4f4" style="stroke: var(--color1, #f4f4f4)" stroke-linejoin="round" stroke-linecap="round" stroke-miterlimit="4" stroke-width="2" d="M22.667 9.333l-13.333 13.333M9.333 9.333l13.333 13.333"></path>
</symbol>
<symbol id="commas" viewBox="0 0 32 32">
<path fill="#f4f4f4" style="fill: var(--color1, #f4f4f4)" d="M8.2 17.469c1.546-0.612 2.785-0.452 3.719 0.481s1.21 2.421 0.831 4.462c-0.292 1.517-0.933 2.683-1.925 3.5-0.963 0.788-2.085 1.181-3.369 1.181-1.75 0-2.96-0.671-3.631-2.012-0.671-1.371-0.802-3.208-0.394-5.512 0.233-1.254 0.613-2.523 1.137-3.806s1.225-2.596 2.1-3.937c0.875-1.342 2.012-2.508 3.412-3.5s2.946-1.633 4.638-1.925l-0.438 4.638c-1.429 0.292-2.698 1.035-3.806 2.231-1.108 1.167-1.867 2.567-2.275 4.2zM21.369 17.469c1.546-0.612 2.785-0.452 3.719 0.481s1.21 2.421 0.831 4.462c-0.292 1.517-0.933 2.683-1.925 3.5-0.962 0.788-2.085 1.181-3.369 1.181-1.75 0-2.96-0.671-3.631-2.012-0.671-1.371-0.802-3.208-0.394-5.512 0.233-1.254 0.612-2.523 1.138-3.806s1.225-2.596 2.1-3.937c0.875-1.342 2.012-2.508 3.412-3.5s2.946-1.633 4.637-1.925l-0.437 4.638c-1.429 0.292-2.698 1.035-3.806 2.231-1.108 1.167-1.867 2.567-2.275 4.2z"></path>
</symbol>
<symbol id="dumbbell" viewBox="0 0 32 32">
<path fill="#242424" style="fill: var(--color2, #242424)" d="M30.118 16c0 8.317-6.742 15.059-15.059 15.059s-15.059-6.742-15.059-15.059c0-8.317 6.742-15.059 15.059-15.059s15.059 6.742 15.059 15.059z"></path>
<path fill="#f4f4f4" style="fill: var(--color1, #f4f4f4)" d="M9.976 11.966h-1.129c-0.313 0-0.565 0.27-0.565 0.605v2.622h-0.565c-0.104 0-0.188 0.091-0.188 0.202v1.21c0 0.111 0.085 0.202 0.188 0.202h0.565v2.622c0 0.335 0.252 0.605 0.565 0.605h1.129c0.313 0 0.565-0.27 0.565-0.605v-6.857c0-0.335-0.252-0.605-0.565-0.605zM22.4 15.193h-0.565v-2.622c0-0.335-0.252-0.605-0.565-0.605h-1.129c-0.313 0-0.565 0.27-0.565 0.605v6.857c0 0.335 0.252 0.605 0.565 0.605h1.129c0.313 0 0.565-0.27 0.565-0.605v-2.622h0.565c0.104 0 0.188-0.091 0.188-0.202v-1.21c0-0.111-0.085-0.202-0.188-0.202zM18.259 10.353h-1.129c-0.313 0-0.565 0.27-0.565 0.605v4.235h-3.012v-4.235c0-0.335-0.252-0.605-0.565-0.605h-1.129c-0.313 0-0.565 0.27-0.565 0.605v10.084c0 0.335 0.252 0.605 0.565 0.605h1.129c0.313 0 0.565-0.27 0.565-0.605v-4.235h3.012v4.235c0 0.335 0.252 0.605 0.565 0.605h1.129c0.313 0 0.565-0.27 0.565-0.605v-10.084c0-0.335-0.252-0.605-0.565-0.605z"></path>
</symbol>
<symbol id="facebook" viewBox="0 0 32 32">
<path fill="#f4f4f4" style="fill: var(--color1, #f4f4f4)" opacity="0.8" d="M19.52 4.64c0.24 0 0.48 0 0.96 0v3.6c-0.24 0-0.72 0-1.2 0s-0.96 0-1.2 0.24c-0.24 0.24-0.24 0.48-0.24 1.040 0 0.48 0 0.8 0 1.28h2.64v3.040h-2.64v13.2h-4.080v-13.28h-2.16v-3.040h2.16v-1.040c0-1.76 0.24-3.040 0.72-3.6 0.72-1.040 2.16-1.52 4.32-1.52 0.24 0.080 0.48 0.080 0.72 0.080z"></path>
</symbol>
<symbol id="heart" viewBox="0 0 32 32">
<path stroke-linejoin="round" stroke-linecap="round" stroke-miterlimit="4" stroke-width="2.6667" d="M27.788 6.147c-0.681-0.681-1.49-1.222-2.38-1.591s-1.844-0.559-2.807-0.559c-0.963 0-1.917 0.19-2.807 0.559s-1.699 0.909-2.38 1.591l-1.413 1.413-1.413-1.413c-1.376-1.376-3.241-2.148-5.187-2.148s-3.811 0.773-5.187 2.148c-1.376 1.376-2.148 3.241-2.148 5.187s0.773 3.811 2.148 5.187l11.787 11.787 11.787-11.787c0.681-0.681 1.222-1.49 1.591-2.38s0.558-1.844 0.558-2.807-0.19-1.917-0.558-2.807c-0.369-0.89-0.909-1.699-1.591-2.38z"></path>
</symbol>
<symbol id="instagram" viewBox="0 0 32 32">
<path fill="#f4f4f4" style="fill: var(--color1, #f4f4f4)" opacity="0.8" d="M28.718 10.756c-0.016-1.074-0.215-2.14-0.596-3.145-0.667-1.716-2.024-3.073-3.743-3.737-0.994-0.373-2.044-0.573-3.108-0.596-1.367-0.061-1.801-0.078-5.273-0.078s-3.916 0-5.274 0.078c-1.062 0.023-2.112 0.223-3.106 0.596-1.719 0.664-3.078 2.021-3.743 3.737-0.374 0.992-0.576 2.041-0.596 3.101-0.061 1.367-0.080 1.8-0.080 5.265s0 3.909 0.080 5.265c0.021 1.062 0.222 2.109 0.596 3.104 0.667 1.714 2.024 3.071 3.744 3.735 0.989 0.386 2.040 0.605 3.106 0.639 1.369 0.061 1.803 0.079 5.274 0.079s3.917 0 5.274-0.079c1.062-0.021 2.112-0.221 3.108-0.595 1.719-0.666 3.076-2.022 3.743-3.737 0.374-0.993 0.574-2.041 0.596-3.104 0.061-1.365 0.080-1.798 0.080-5.265-0.003-3.466-0.003-3.906-0.082-5.264zM15.991 22.531c-3.631 0-6.572-2.936-6.572-6.561s2.941-6.561 6.572-6.561c3.628 0 6.572 2.936 6.572 6.561s-2.944 6.561-6.572 6.561zM22.824 10.696c-0.849 0-1.532-0.684-1.532-1.53s0.684-1.53 1.532-1.53c0.846 0 1.531 0.684 1.531 1.53s-0.685 1.53-1.531 1.53z"></path>
<path fill="#f4f4f4" style="fill: var(--color1, #f4f4f4)" opacity="0.8" d="M15.992 19.976c2.211 0 4.004-1.793 4.004-4.004s-1.793-4.004-4.004-4.004c-2.211 0-4.004 1.793-4.004 4.004s1.793 4.004 4.004 4.004z"></path>
</symbol>
<symbol id="man" viewBox="0 0 32 32">
<path fill="#f4f4f4" style="fill: var(--color1, #f4f4f4)" opacity="0.2" d="M30.118 16c0 8.317-6.742 15.059-15.059 15.059s-15.059-6.742-15.059-15.059c0-8.317 6.742-15.059 15.059-15.059s15.059 6.742 15.059 15.059z"></path>
<path fill="#f4f4f4" style="fill: var(--color1, #f4f4f4)" d="M23.275 12.148c-0.252-0.295-0.702-0.333-1.003-0.088l-1.976 1.622-0.909-2.2c-0.032-0.083-0.081-0.152-0.138-0.213-0.186-0.404-0.508-0.75-0.952-0.951-0.193-0.086-0.392-0.132-0.591-0.154-0.044-0.022-0.083-0.052-0.134-0.067l-3.477-0.947c-0.195-0.052-0.391-0.018-0.552 0.073-0.191 0.063-0.355 0.199-0.433 0.396l-1.309 3.289c-0.142 0.358 0.040 0.761 0.407 0.902 0.365 0.139 0.779-0.040 0.922-0.399l1.106-2.778 1.584 0.43c-0.039 0.061-0.080 0.118-0.112 0.184l-2.030 4.299c-0.029 0.063-0.045 0.127-0.066 0.193l-2.467 4.042-4.129 1.35c-0.467 0.341-0.566 0.985-0.221 1.441 0.347 0.458 1.008 0.554 1.474 0.217l4.225-1.422c0.129-0.092 0.223-0.212 0.294-0.342 0.053-0.055 0.114-0.099 0.154-0.167l1.471-2.41 2.611 2.174-2.794 3.076c-0.385 0.424-0.346 1.077 0.090 1.453 0.435 0.378 1.102 0.338 1.489-0.088l3.486-3.838c0.109-0.118 0.173-0.255 0.217-0.398 0.026-0.077 0.026-0.158 0.032-0.238 0-0.041 0.016-0.077 0.013-0.115-0.009-0.281-0.126-0.554-0.362-0.749l-2.403-2.002c0.173-0.161 0.32-0.353 0.427-0.578l1.556-3.293 0.499 1.297c0.021 0.115 0.061 0.228 0.144 0.323 0.075 0.088 0.171 0.146 0.273 0.187 0.010 0.005 0.023 0.006 0.035 0.009 0.065 0.022 0.13 0.044 0.198 0.047 0.080 0.007 0.162-0.003 0.244-0.025 0.002-0.001 0.003-0.001 0.003-0.001 0.022-0.005 0.044-0.001 0.066-0.010 0.116-0.043 0.204-0.115 0.281-0.2l2.835-2.352c0.301-0.248 0.174-0.686-0.079-0.981z"></path>
<path fill="#f4f4f4" style="fill: var(--color1, #f4f4f4)" d="M19.689 10.472c1.098 0 1.987-0.869 1.987-1.942s-0.89-1.942-1.987-1.942c-1.098 0-1.987 0.869-1.987 1.942s0.89 1.942 1.987 1.942z"></path>
</symbol>
<symbol id="search" viewBox="0 0 32 32">
<path stroke-linejoin="round" stroke-linecap="round" stroke-miterlimit="4" stroke-width="2.6667" d="M14.667 25.333c5.891 0 10.667-4.776 10.667-10.667s-4.776-10.667-10.667-10.667c-5.891 0-10.667 4.776-10.667 10.667s4.776 10.667 10.667 10.667z"></path>
<path stroke-linejoin="round" stroke-linecap="round" stroke-miterlimit="4" stroke-width="2.6667" d="M28 28l-5.8-5.8"></path>
</symbol>
<symbol id="star" viewBox="0 0 32 32">
<path fill="#eea10c" style="fill: var(--color3, #eea10c)" d="M13.618 1.701c0.737-2.268 3.945-2.268 4.682 0l2.080 6.402c0.33 1.014 1.275 1.701 2.341 1.701h6.731c2.384 0 3.376 3.051 1.447 4.453l-5.446 3.957c-0.863 0.627-1.224 1.738-0.894 2.752l2.080 6.402c0.737 2.268-1.859 4.154-3.788 2.752l-5.446-3.957c-0.863-0.627-2.031-0.627-2.894 0l-5.446 3.957c-1.929 1.402-4.525-0.484-3.788-2.752l2.080-6.402c0.33-1.014-0.031-2.125-0.894-2.752l-5.446-3.957c-1.929-1.402-0.938-4.453 1.447-4.453h6.731c1.066 0 2.012-0.687 2.341-1.701l2.080-6.402z"></path>
</symbol>
<symbol id="sun" viewBox="0 0 32 32">
<path d="M14.316 13.621l0.365 0.376-4.485-12.907 5.344 12.573 0.018-0.524 0.443-13.138 0.461 13.663 5.344-12.573-4.485 12.907 9.506-9.785-8.825 10.409 12.384-5.676-11.973 6.504 13.589-0.8-13.504 1.721 12.959 4.184-13.211-3.294 10.579 8.603-11.134-7.864 6.77 11.86-7.554-11.373 2.047 13.515-2.953-13.345-2.953 13.345 2.047-13.515-7.553 11.373 6.77-11.86-11.134 7.864 10.579-8.603-13.211 3.294 12.959-4.184-13.504-1.721 13.589 0.8-11.973-6.504 12.384 5.676-8.825-10.409 9.141 9.41zM15.25 14.192l-0.649 0.404-0.46 0.612-0.209 0.737 0.070 0.763 0.34 0.686 0.564 0.517 0.712 0.277h0.763l0.712-0.277 0.564-0.517 0.34-0.686 0.070-0.763-0.209-0.737-0.46-0.612-0.649-0.404-0.75-0.141-0.75 0.141z"></path>
</symbol>
<symbol id="trash" viewBox="0 0 32 32">
<path stroke-linejoin="round" stroke-linecap="round" stroke-miterlimit="4" stroke-width="2.6" d="M21.333 8v-1.067c0-1.493 0-2.24-0.291-2.811-0.256-0.502-0.664-0.91-1.165-1.165-0.57-0.291-1.317-0.291-2.811-0.291h-2.133c-1.493 0-2.24 0-2.811 0.291-0.502 0.256-0.91 0.664-1.165 1.165-0.291 0.57-0.291 1.317-0.291 2.811v1.067M13.333 15.333v6.667M18.667 15.333v6.667M4 8h24M25.333 8v14.933c0 2.24 0 3.36-0.436 4.216-0.384 0.753-0.995 1.365-1.748 1.748-0.856 0.436-1.976 0.436-4.216 0.436h-5.867c-2.24 0-3.36 0-4.216-0.436-0.753-0.383-1.365-0.995-1.748-1.748-0.436-0.856-0.436-1.976-0.436-4.216v-14.933"></path>
</symbol>
<symbol id="youtube" viewBox="0 0 32 32">
<path fill="#f4f4f4" style="fill: var(--color1, #f4f4f4)" opacity="0.8" d="M24.24 6c-1.36-0.080-4.16-0.16-8.4-0.16h-0.56c-4.080 0-6.8 0.080-8.16 0.24-1.84 0.16-3.12 0.64-3.84 1.28-0.64 0.56-1.12 1.6-1.28 2.96-0.080 0.88-0.16 2.72-0.16 5.52v0.4c0 2.64 0.080 4.48 0.24 5.36 0.24 1.28 0.64 2.24 1.44 2.8 0.8 0.64 2.16 1.040 4.080 1.2 1.36 0.080 4.16 0.16 8.4 0.16h0.56c4.080 0 6.8-0.080 8.16-0.24 1.84-0.16 3.12-0.64 3.84-1.28 0.64-0.56 1.12-1.6 1.28-2.96 0.080-0.88 0.16-2.72 0.16-5.52v-0.4c0-2.64-0.080-4.48-0.24-5.36-0.24-1.28-0.64-2.24-1.44-2.8-0.8-0.64-2.16-1.040-4.080-1.2zM21.12 15.84l-8.8 5.28v-10.56l8.8 5.28z"></path>
</symbol>
</defs>
</svg>
